<svg width="2562" height="2562" viewBox="0 0 2562 2562" fill="none" xmlns="http://www.w3.org/2000/svg">
<g clip-path="url(#clip0_467_808)">
<path d="M0 464.025C0 207.751 207.751 0 464.025 0H2097.7C2353.97 0 2561.72 207.751 2561.72 464.025V2097.7C2561.72 2353.97 2353.97 2561.72 2097.7 2561.72H464.025C207.751 2561.72 0 2353.97 0 2097.7V464.025Z" fill="black"/>
<path d="M1644.72 882.404L913.994 960.896C780.095 975.279 683.208 1095.49 697.591 1229.39L755.693 1770.29C770.076 1904.19 890.283 2001.08 1024.18 1986.69L1754.91 1908.2C1888.81 1893.82 1985.69 1773.61 1971.31 1639.71L1913.21 1098.81C1898.82 964.908 1778.62 868.021 1644.72 882.404Z" fill="white"/>
<path d="M1416.19 1781.12C1415 1769.86 1424.7 1760.47 1435.91 1762.04L1764.85 1807.82C1779.92 1809.92 1785.24 1828.99 1773.43 1838.59L1475.03 2081.12C1464.3 2089.84 1448.18 2083.19 1446.72 2069.44L1416.19 1781.12Z" fill="white"/>
<path fill-rule="evenodd" clip-rule="evenodd" d="M1658.54 1064.01C1622.64 1079.67 1596.84 1114.62 1594.92 1156.31L1562.65 1857.82C1561.01 1893.42 1577.16 1925.72 1603.26 1946.16C1635.19 1957.99 1668.5 1966.2 1702.62 1970.38L1768.22 1973.4C1792.07 1972.67 1816.13 1969.96 1840.23 1965.14C1877.26 1957.74 1912.25 1945.77 1944.78 1929.91C2085.5 1859.06 2185.89 1715.21 2196.51 1544.66C2196.69 1541.76 2196.85 1538.86 2196.98 1535.94C2205.83 1335.06 2087.65 1158.67 1915.08 1087.95C1883.2 1078.18 1849.7 1070.18 1818.02 1064.22C1806.66 1062.09 1795.42 1060.35 1784.55 1058.91L1719.27 1055.91C1698.65 1057.21 1678.37 1059.94 1658.54 1064.01Z" fill="#FFC800"/>
<path fill-rule="evenodd" clip-rule="evenodd" d="M592.944 1383.59C566.45 1303.54 552.021 1217.3 552.021 1127.42C552.021 706.881 867.918 365.963 1257.6 365.963C1647.27 365.963 1963.17 706.881 1963.17 1127.42C1963.17 1154.63 1961.85 1181.51 1959.27 1207.98L1804.18 1227.92C1807.68 1199.64 1809.48 1170.75 1809.48 1141.39C1809.48 798.014 1562.39 519.649 1257.6 519.649C952.8 519.649 705.713 798.014 705.713 1141.39C705.713 1219.99 718.657 1295.18 742.276 1364.4L592.944 1383.59Z" fill="#FFC800"/>
<path d="M1416.19 1784.16C1415 1772.9 1424.7 1763.52 1435.91 1765.08L1764.85 1810.86C1779.92 1812.96 1785.24 1832.03 1773.43 1841.63L1475.03 2084.17C1464.3 2092.89 1448.18 2086.23 1446.72 2072.49L1416.19 1784.16Z" fill="white"/>
<path fill-rule="evenodd" clip-rule="evenodd" d="M1283.9 1961.84L1754.9 1911.24C1888.8 1896.86 1985.69 1776.65 1971.31 1642.75L1913.21 1101.85C1898.82 967.952 1778.62 871.065 1644.72 885.448L1283.9 924.206V1961.84Z" fill="white"/>
<path d="M1411.58 1193.73L1460.29 1676.12" stroke="#FFC800" stroke-width="47.2056" stroke-linecap="round"/>
<path d="M1527.41 1266.7L1559.26 1582.11" stroke="#FFC800" stroke-width="47.2056" stroke-linecap="round"/>
<path d="M1320.12 1324.47L1344.48 1565.67" stroke="#FFC800" stroke-width="47.2056" stroke-linecap="round"/>
<path d="M1219.3 1362.45L1238.04 1547.98" stroke="#FFC800" stroke-width="47.2056" stroke-linecap="round"/>
<path d="M1639.49 1321.31L1658.22 1506.85" stroke="#FFC800" stroke-width="47.2056" stroke-linecap="round"/>
<path d="M1004.49 1383.47L1023.23 1569.01" stroke="#FFC800" stroke-width="47.2056" stroke-linecap="round"/>
<path d="M1101.6 1270.91L1140.94 1660.54" stroke="#FFC800" stroke-width="47.2056" stroke-linecap="round"/>
<path fill-rule="evenodd" clip-rule="evenodd" d="M876.728 1147.08C915.198 1154.28 948.177 1182.53 959.419 1222.7L1148.67 1898.97C1158.28 1933.28 1149.8 1968.39 1128.96 1994.18C1100.52 2012.89 1069.92 2028.37 1037.62 2040.12L974.353 2057.83C950.959 2062.48 926.907 2065.26 902.343 2065.98C864.224 2067.1 827.084 2063.23 791.496 2054.92C636.944 2016.78 505.89 1896.83 458.773 1730.13C458.576 1729.44 458.381 1728.74 458.187 1728.04C404.365 1534.29 479.847 1335.83 632.096 1228.11C660.961 1211.42 691.804 1196.09 721.325 1183.16C731.93 1178.51 742.517 1174.29 752.795 1170.43L815.572 1152.87C836.015 1149.48 856.439 1147.57 876.728 1147.08Z" fill="#FFC800"/>
</g>
<defs>
<clipPath id="clip0_467_808">
<rect width="2562" height="2562" fill="white"/>
</clipPath>
</defs>
</svg>
