<svg width="37" height="36" viewBox="0 0 37 36" fill="none" xmlns="http://www.w3.org/2000/svg">
<path d="M36.4301 18C36.4301 27.9025 28.4025 35.9301 18.5 35.9301C8.59748 35.9301 0.569903 27.9025 0.569903 18C0.569903 8.09748 8.59748 0.0699029 18.5 0.0699029C28.4025 0.0699029 36.4301 8.09748 36.4301 18Z" fill="#FFC126"/>
<path d="M9.84984 4.55584C9.65046 4.24391 9.73935 3.82826 10.0576 3.63922C12.6575 2.09509 15.6267 1.29622 18.6438 1.32909C19.0103 1.33308 19.2919 1.64629 19.2735 2.01235C19.255 2.37809 18.9439 2.6583 18.5777 2.65642C18.5518 2.65629 18.5259 2.65622 18.4999 2.65622C15.6884 2.65622 13.0551 3.42643 10.7959 4.76912C10.4731 4.96096 10.0521 4.87222 9.84984 4.55584Z" fill="#FFE07E"/>
<path d="M8.38301 5.65698C8.61825 5.9458 8.57647 6.36895 8.30142 6.62015C7.29239 7.54168 6.40646 8.59797 5.67156 9.76091C5.46779 10.0834 5.04603 10.1977 4.71666 10.0053C4.3913 9.81526 4.27898 9.39748 4.47976 9.07865C5.29839 7.77871 6.29132 6.59911 7.43032 5.57344C7.71128 5.32044 8.14424 5.36382 8.38301 5.65698Z" fill="#FFE07E"/>
<path d="M2.70861 17.3755C3.03975 17.3894 3.2962 17.6684 3.2962 17.9999C3.2962 20.6221 3.94803 23.0907 5.09704 25.2496C5.27889 25.5913 5.17178 26.0204 4.83998 26.2197C4.50495 26.4209 4.0687 26.3114 3.88434 25.9668C2.58183 23.5319 1.89922 20.8085 1.89809 18.0418C1.89793 17.6554 2.22544 17.3553 2.61149 17.3715L2.70861 17.3755Z" fill="#FFE07E"/>
<path d="M34.3553 17.4135C34.7221 17.3991 35.0323 17.6851 35.032 18.0521C35.0286 21.3901 34.0335 24.6563 32.1674 27.4255C30.3075 30.1854 27.6738 32.3159 24.6106 33.5498C24.2562 33.6926 23.8602 33.5017 23.7344 33.1409C23.6092 32.7821 23.7989 32.3913 24.1511 32.2488C29.7496 29.9854 33.7038 24.4588 33.7038 18.0001C33.7038 17.69 33.9444 17.4295 34.2542 17.4174L34.3553 17.4135Z" fill="#FFE07E"/>
<path d="M32.5155 18C32.5155 25.7406 26.2406 32.0155 18.5 32.0155C10.7594 32.0155 4.48447 25.7406 4.48447 18C4.48447 10.2594 10.7594 3.98447 18.5 3.98447C26.2406 3.98447 32.5155 10.2594 32.5155 18Z" fill="#FFA31F"/>
<path d="M30.2087 18C30.2087 24.4666 24.9666 29.7087 18.5 29.7087C12.0334 29.7087 6.79126 24.4666 6.79126 18C6.79126 11.5334 12.0334 6.29126 18.5 6.29126C24.9666 6.29126 30.2087 11.5334 30.2087 18Z" fill="#FFE07E"/>
<path d="M17.6887 10.9932C16.8008 11.1016 16.0417 11.3253 15.2826 11.7048C13.2018 12.7452 11.7785 14.7345 11.4532 17.0626C11.4057 17.4015 11.3956 17.632 11.4125 18.3335C11.4464 19.9296 11.6158 20.8514 12.2868 23.0338C12.5783 23.9793 12.663 24.1589 12.9748 24.4741C13.4391 24.9418 14.0152 25.1451 14.6387 25.0672C14.8997 25.0333 15.7164 24.7927 15.9231 24.6876C16.1197 24.5893 16.3772 24.3114 16.4789 24.0912C16.5568 23.9251 16.5704 23.8539 16.5704 23.5761C16.5704 23.2575 16.567 23.2439 16.018 21.458C15.713 20.4685 15.4283 19.584 15.3877 19.4925C15.1945 19.0655 14.7234 18.7639 14.249 18.7639C13.9677 18.7639 13.0493 19.0417 12.7782 19.2078C12.6867 19.262 12.6054 19.3027 12.5952 19.2925C12.5478 19.2451 12.5173 18.5605 12.5308 17.9166C12.5512 17.1067 12.5986 16.7949 12.8121 16.1544C13.3204 14.6294 14.4456 13.3484 15.8824 12.6639C17.9632 11.6709 20.4405 11.9658 22.1959 13.4128C22.4568 13.6263 22.9042 14.0804 23.1177 14.3414C23.6531 15.0022 24.0835 15.9308 24.2868 16.8661C24.3546 17.188 24.3648 17.31 24.3648 18.1369C24.3648 18.6385 24.3512 19.1095 24.3377 19.1807L24.3106 19.3061L24.1004 19.1909C23.9852 19.1265 23.6836 19.0079 23.4328 18.9299C23.0262 18.8011 22.9381 18.7842 22.6534 18.7842C22.3789 18.7842 22.3043 18.7977 22.1451 18.8723C21.874 18.9977 21.6571 19.2044 21.5385 19.4518C21.4809 19.567 21.1894 20.4685 20.8878 21.458C20.288 23.4134 20.2575 23.5591 20.3625 23.9217C20.471 24.2945 20.7895 24.63 21.1691 24.7622C21.8231 24.9926 22.1586 25.0705 22.4806 25.0705C23.0804 25.0705 23.4972 24.9011 23.9107 24.4911C24.2292 24.1725 24.3241 23.9895 24.5715 23.1863C25.2696 20.926 25.456 19.9296 25.4899 18.3335C25.5068 17.632 25.4967 17.4015 25.4492 17.0626C24.9985 13.8602 22.5009 11.3998 19.2984 11.0033C19.0341 10.9728 17.9225 10.9627 17.6887 10.9932Z" fill="#FFA31F"/>
</svg>
